<svg xmlns="http://www.w3.org/2000/svg" width="24" height="24" viewBox="312.00 936.00 24 24" fill="none"><g id="Icon/Small/Analytics">
<path id="Icon_194" fill-rule="evenodd" clip-rule="evenodd" d="M316 944.778C316 942.139 318.139 940 320.778 940H327.222C329.861 940 332 942.139 332 944.778V944.939C332 944.94 332 944.941 332 944.942V951.222C332 953.861 329.861 956 327.222 956H320.778C318.139 956 316 953.861 316 951.222V951.097C316 951.096 316 951.095 316 951.094V944.778ZM317.505 951.411C317.603 953.133 319.031 954.5 320.778 954.5H327.222C329.032 954.5 330.5 953.032 330.5 951.222V946.694L326.679 950.343C326.078 950.904 325.145 950.904 324.543 950.343L324.537 950.337L321.627 947.558C321.602 947.536 321.565 947.536 321.54 947.558L317.505 951.411ZM330.496 944.624C330.416 942.885 328.981 941.5 327.222 941.5H320.778C318.968 941.5 317.5 942.968 317.5 944.778V949.342L320.515 946.462C321.117 945.901 322.05 945.901 322.651 946.462L322.658 946.468L325.568 949.248C325.593 949.269 325.63 949.269 325.654 949.248L330.496 944.624Z" fill="#2F68DB"/>
</g></svg>
