<svg width="94" height="28" viewBox="0 0 94 28" fill="none" xmlns="http://www.w3.org/2000/svg">
<path d="M23.6545 15.995C24.4315 16.6154 25.239 16.7818 25.8027 16.7818C26.6254 16.7818 27.0825 16.4187 27.0825 15.9194C27.0825 14.4214 23.106 15.3444 23.106 12.6208C23.106 11.2438 24.142 10.2452 25.7265 10.2452C26.3664 10.2452 27.4481 10.4116 28.3166 11.1076L27.4939 12.2425C26.8235 11.7583 26.1379 11.6524 25.7418 11.6524C24.98 11.6524 24.6296 12.0458 24.6296 12.4543C24.6296 13.8918 28.5908 13.105 28.5908 15.8437C28.5908 17.2963 27.4786 18.1891 25.757 18.1891C24.6143 18.1891 23.6088 17.7805 22.8166 17.1904L23.6545 15.995ZM35.1421 10.3662H36.6808V14.8753C36.6808 17.2509 35.3401 18.1588 33.2072 18.1588C31.0742 18.1588 29.7335 17.2509 29.7335 14.8753V10.3662H31.2875V14.4365C31.2875 15.8588 31.6227 16.7213 33.2072 16.7213C34.7916 16.7213 35.1421 15.8588 35.1421 14.4365V10.3662ZM42.5465 16.7213C43.9939 16.7213 45.0756 15.6167 45.0756 14.1944C45.0756 12.8023 43.9939 11.6675 42.5617 11.6675C41.1296 11.6675 40.0479 12.7872 40.0479 14.1944C40.0327 15.5714 41.0534 16.7213 42.5465 16.7213ZM38.4482 21.3666V10.3662H39.9869V11.3497C40.6268 10.5932 41.5105 10.23 42.5465 10.23C44.7861 10.23 46.5991 11.955 46.5991 14.2095C46.5991 16.4338 44.8318 18.1739 42.5465 18.1739C41.5105 18.1739 40.6268 17.8108 39.9869 17.0693V21.3666H38.4482ZM53.6532 13.4832C53.4703 12.4241 52.541 11.607 51.3374 11.607C50.1338 11.607 49.2501 12.4089 48.9911 13.4832H53.6532ZM48.9302 14.7089C49.1435 15.874 50.1033 16.7818 51.3983 16.7818C52.2363 16.7818 53.059 16.4036 53.5465 15.7378L54.6435 16.57C53.9426 17.5687 52.7238 18.1588 51.4136 18.1588C49.1892 18.1588 47.4066 16.4338 47.4066 14.1944C47.4066 12.0609 49.0368 10.2149 51.3221 10.2149C53.5922 10.2149 55.2377 12.0458 55.2377 14.1793C55.2377 14.3911 55.2224 14.5576 55.2072 14.6937H48.9302V14.7089ZM56.487 17.947V10.3511H58.0258V11.259C58.7571 10.3813 59.5188 10.1998 61.0119 10.1998V11.6675C58.4828 11.6675 58.0258 12.6964 58.0258 13.9977V17.9318H56.487V17.947ZM64.9731 18.0377C64.7141 18.0983 64.4551 18.1588 64.12 18.1588C62.8554 18.1588 62.0936 17.4022 62.0936 16.0102V6.90117H63.6324V15.526C63.6324 16.343 63.8305 16.7062 64.577 16.7062C64.6684 16.7062 64.8208 16.7062 64.9731 16.6911V18.0377ZM69.5743 11.6675C68.1421 11.6675 67.0909 12.878 67.0909 14.2095C67.0909 15.5562 68.1878 16.7213 69.5743 16.7213C70.9912 16.7213 72.0576 15.5411 72.0576 14.1793C72.0729 12.8023 70.9607 11.6675 69.5743 11.6675ZM69.559 18.1588C67.3499 18.1588 65.5521 16.3884 65.5521 14.1944C65.5521 12.0155 67.3194 10.2149 69.559 10.2149C71.7834 10.2149 73.6117 12.0004 73.6117 14.1944C73.5964 16.3733 71.7682 18.1588 69.559 18.1588ZM78.4565 11.6675C77.0244 11.6675 75.9732 12.878 75.9732 14.2095C75.9732 15.5562 77.0701 16.7213 78.4565 16.7213C79.8734 16.7213 80.9552 15.5411 80.9552 14.1793C80.9552 12.8023 79.843 11.6675 78.4565 11.6675ZM78.4413 18.1588C76.2322 18.1588 74.4344 16.3884 74.4344 14.1944C74.4344 12.0155 76.2017 10.2149 78.4413 10.2149C80.6657 10.2149 82.4939 12.0004 82.4939 14.1944C82.4787 16.3733 80.6657 18.1588 78.4413 18.1588ZM87.9482 16.7213C89.3956 16.7213 90.4773 15.6167 90.4773 14.1944C90.4773 12.8023 89.3956 11.6675 87.9635 11.6675C86.5313 11.6675 85.4496 12.7872 85.4496 14.1944C85.4649 15.5714 86.4704 16.7213 87.9482 16.7213ZM83.8804 21.3666V10.3662H85.4192V11.3497C86.059 10.5932 86.9427 10.23 87.9787 10.23C90.2183 10.23 92.0314 11.955 92.0314 14.2095C92.0314 16.4338 90.264 18.1739 87.9787 18.1739C86.9427 18.1739 86.059 17.8108 85.4192 17.0693V21.3666H83.8804ZM10.5215 8.97415C11.1919 8.30838 12.106 7.93009 13.0658 7.93009C14.0104 7.93009 14.8941 8.29324 15.5645 8.94388L20.5008 4.04137C18.4592 2.01379 15.7625 1 13.0658 1C10.3539 1 7.64202 2.02892 5.58523 4.07164C1.48688 8.14193 1.47165 14.7845 5.53952 18.9002L10.4758 14.0128C9.82069 13.3471 9.45504 12.4695 9.45504 11.5313C9.47028 10.5629 9.85116 9.67018 10.5215 8.97415Z" fill="#A1A1A1"></path>
<path d="M0.726562 23.9697C4.85538 28.0248 11.5438 28.0097 15.6573 23.9243C19.7709 19.8389 19.7709 13.2114 15.703 9.0957L10.7515 14.0133C12.1075 15.4054 12.1075 17.66 10.7058 19.0369C9.31937 20.4138 7.06452 20.429 5.64762 19.0823L0.726562 23.9697Z" fill="#D4D4D4"></path>
</svg>