<svg width="62" height="18" viewBox="0 0 62 18" fill="none" xmlns="http://www.w3.org/2000/svg">
<path d="M8.96772 0.387085C4.25805 0.387085 0.387085 4.25805 0.387085 8.96772C0.387085 13.6774 4.19353 17.5484 8.96772 17.5484C13.6774 17.5484 17.5484 13.7419 17.5484 8.96772C17.5484 4.25805 13.6774 0.387085 8.96772 0.387085Z" fill="white"/>
<path d="M16.5162 16.3225H16.6452C16.7743 16.3225 16.8388 16.387 16.8388 16.5161C16.8388 16.5806 16.7743 16.7096 16.6452 16.7096H16.5162V16.3225ZM16.5162 16.9032H16.5807C16.8388 16.9032 16.7743 17.0322 16.7743 17.2258C16.7743 17.2903 16.7743 17.4193 16.8388 17.4838H17.1614C17.1614 17.4193 17.0969 17.1612 17.0969 17.0967C17.0969 16.8387 16.9033 16.8387 16.8388 16.8387C17.0323 16.8387 17.0969 16.6451 17.0969 16.5161C17.0969 16.258 16.9678 16.129 16.7098 16.129H16.1291V17.5483H16.4517V16.9032H16.5162ZM16.6452 15.5483C16.0001 15.5483 15.4194 16.0645 15.4194 16.7741C15.4194 17.4193 15.9356 18 16.6452 18C17.2904 18 17.871 17.4838 17.871 16.7741C17.871 16.0645 17.2904 15.5483 16.6452 15.5483ZM16.6452 17.7419C16.1291 17.7419 15.6775 17.2903 15.6775 16.7741C15.6775 16.258 16.1291 15.8064 16.6452 15.8064C17.1614 15.8064 17.613 16.258 17.613 16.7741C17.613 17.2903 17.1614 17.7419 16.6452 17.7419Z" fill="white"/>
<path d="M13.4193 10.2581H11.5484C11.6129 9.99999 11.6129 9.74193 11.4193 9.41935L8.38709 4.12903C7.93548 3.35484 7.48386 2.77419 7.09677 2.32258C8.32257 2.96774 10.7097 4.32258 15.3548 7.03225L15.6129 7.16128C16.4516 7.67741 16.9677 8.45161 16.8387 8.96773C16.6451 9.80644 15.4193 10.2581 13.4193 10.2581ZM7.35483 15.4193L7.09677 15.6129C6.25806 16.129 5.29032 16.129 4.90322 15.7419C4.38709 15.2258 4.64516 13.9355 5.6129 12.1935L6.51612 10.5806C6.70967 10.7742 6.96774 10.9032 7.29032 10.9032H13.3548C14.2581 10.9032 14.9677 10.8387 15.6129 10.6452C14.4516 11.4193 12.0645 12.7742 7.35483 15.4193ZM4.12903 4.32258V4C4.12903 3.03226 4.51613 2.19355 5.09677 2.06451C5.80645 1.87097 6.8387 2.77419 7.80645 4.45161L8.70967 6.06451C8.45161 6.12903 8.19354 6.32258 8.06451 6.58064L5.03225 11.8064C4.58064 12.5806 4.25806 13.2258 4.12903 13.871C4.12903 12.5161 4.12903 9.74193 4.12903 4.32258ZM8.96773 0C4 0 0 4 0 8.96773C0 13.9355 4 17.9355 8.96773 17.9355C13.9355 17.9355 17.9355 13.9355 17.9355 8.96773C17.9355 4 13.9355 0 8.96773 0Z" fill="#1F2428"/>
<path d="M27.2258 2.45166H21.3549H21.2258V3.0323H21.3549C23.4194 3.29037 23.6774 3.54843 23.6774 4.64521V15.742H26.0645V9.93553H27.0323C29.2903 9.93553 34 9.93553 34 6.19359C34 2.45166 29.6129 2.45166 27.2258 2.45166ZM26.9678 8.96778H26.0645V4.64521C26.0645 3.61295 26.0645 3.48392 28 3.48392C30.1936 3.48392 31.3549 4.45166 31.3549 6.25811C31.3549 8.6452 29.0968 8.96778 26.9678 8.96778Z" fill="white"/>
<path d="M47.4193 2.45166H45.9999V12.8387C45.6774 12.3226 38.5806 2.45166 38.5806 2.45166H33.5483V3.0323H33.6774C35.7419 3.29037 36 3.4194 36 4.83876V15.742H37.5483V4.58069C37.9354 5.09682 45.6128 15.742 45.6128 15.742H47.6774V2.45166H47.4193Z" fill="white"/>
<path d="M49.4192 8.64509C49.4192 12.258 51.6127 15.9354 56.5805 15.9354C58.9031 15.9354 60.0643 15.6773 61.1611 15.4193H61.2901V14.3225L61.0966 14.387C59.9353 14.7096 58.8385 14.8386 57.9353 14.8386C53.9998 14.8386 52.0643 12.6451 52.0643 8.19348C52.0643 5.22574 53.4837 3.41929 55.8708 3.41929C57.4837 3.41929 58.3869 4.06445 58.645 5.29025V5.41929H61.2901V5.16122C61.2256 4.45154 60.5805 2.19348 55.9998 2.19348C51.6127 2.19348 49.4192 4.38703 49.4192 8.64509Z" fill="white"/>
</svg>
