<svg width="163" height="40" viewBox="0 0 163 40" fill="none" xmlns="http://www.w3.org/2000/svg">
<path d="M39.9963 20C39.9963 31.0454 31.0454 40 20 40C8.95462 40 0 31.0454 0 20C0 8.95461 8.95462 0 20 0C31.0454 0 39.9963 8.95461 39.9963 20Z" fill="#1F2428"></path>
<path d="M20.1574 31.1521C14.6641 31.1708 8.94671 26.4819 8.92099 18.9493C8.90259 13.9704 11.5923 9.17528 15.0242 6.33126C18.3753 3.56073 22.9647 1.77861 27.1242 1.76392C27.6607 1.76392 28.2228 1.80793 28.5646 1.92552C24.9269 2.67879 22.0314 6.0666 22.0424 9.90642C22.0424 10.0349 22.0534 10.1709 22.068 10.2334C28.1566 11.7179 30.9198 15.3924 30.9381 20.4741C30.9528 25.5595 26.9405 31.13 20.1574 31.1521Z" fill="white"></path>
<path d="M52.9124 28.2826L46.7981 13.6914H50.7922L54.6063 23.3809L58.3028 13.6914H62.1169L56.1826 28.2826H52.9124Z" fill="#1F2428"></path>
<path d="M72.7579 20.9116C72.7579 20.3053 72.6882 19.7284 72.5448 19.1809C72.4052 18.6334 72.1921 18.1631 71.9091 17.77C71.6262 17.3731 71.2845 17.0608 70.8803 16.8293C70.4761 16.5941 70.0021 16.4765 69.4583 16.4765C68.9145 16.4765 68.4368 16.5941 68.0363 16.8293C67.6321 17.0607 67.2867 17.3731 67.0074 17.77C66.7245 18.1631 66.5114 18.6334 66.3717 19.1809C66.2285 19.7284 66.1586 20.3053 66.1586 20.9116C66.1586 21.5399 66.2284 22.1241 66.3717 22.6606C66.5114 23.1971 66.7171 23.6674 66.9891 24.0716C67.261 24.4758 67.6064 24.7954 68.0216 25.0306C68.4331 25.2621 68.9145 25.3797 69.4583 25.3797C70.0021 25.3797 70.4761 25.2621 70.8803 25.0306C71.2845 24.7954 71.6262 24.4758 71.9091 24.0716C72.1921 23.6674 72.4052 23.1971 72.5448 22.6606C72.6881 22.1241 72.7579 21.5399 72.7579 20.9116ZM76.4508 20.9276C76.4508 21.8793 76.3038 22.8126 76.0135 23.7312C75.7195 24.6498 75.2859 25.4692 74.7091 26.1967C74.1359 26.9243 73.4083 27.5085 72.5301 27.9531C71.6519 28.3977 70.6268 28.6182 69.4583 28.6182C68.2861 28.6182 67.261 28.3977 66.3865 27.9531C65.5083 27.5085 64.7807 26.9243 64.2038 26.1967C63.6306 25.4692 63.197 24.6498 62.9031 23.7312C62.6128 22.8126 62.4658 21.8793 62.4658 20.9276C62.4658 19.9796 62.6128 19.0536 62.9031 18.1424C63.197 17.2348 63.6306 16.4227 64.2038 15.7062C64.7807 14.9897 65.5083 14.4165 66.3865 13.9829C67.261 13.5493 68.2861 13.3289 69.4583 13.3289C70.6268 13.3289 71.6483 13.5494 72.5154 13.9829C73.3826 14.4165 74.1101 14.9897 74.6944 15.7062C75.2823 16.4227 75.7195 17.2348 76.0135 18.1424C76.3038 19.0536 76.4508 19.9796 76.4508 20.9276Z" fill="#1F2428"></path>
<path d="M87.7268 16.9021C87.003 16.6192 86.3305 16.4759 85.7059 16.4759C85.0665 16.4759 84.5117 16.601 84.0524 16.8433C83.5894 17.0857 83.2073 17.4129 82.906 17.8281C82.6046 18.2433 82.3805 18.7099 82.2299 19.2281C82.0792 19.7425 82.002 20.2753 82.002 20.8228C82.002 21.4291 82.0681 22.0096 82.2005 22.5681C82.3291 23.123 82.5312 23.6117 82.8031 24.0269C83.0713 24.4421 83.413 24.7764 83.8246 25.03C84.2361 25.2798 84.7248 25.4085 85.287 25.4085C85.75 25.4085 86.2203 25.2799 86.7017 25.03C87.183 24.7764 87.5247 24.4752 87.7268 24.1334L87.7268 16.9021ZM88.0281 28.2819L87.8775 27.1649C87.5358 27.547 87.0838 27.885 86.5179 28.1753C85.9557 28.4693 85.2907 28.6163 84.5264 28.6163C83.5233 28.6163 82.634 28.4032 81.8734 27.9806C81.1055 27.558 80.4624 26.9922 79.9407 26.2867C79.4189 25.5812 79.0184 24.7618 78.7465 23.8321C78.4782 22.9062 78.3423 21.9361 78.3423 20.9257C78.3423 19.9777 78.4819 19.048 78.7612 18.1404C79.0441 17.2328 79.4703 16.4208 80.0436 15.7043C80.6204 14.9878 81.337 14.4146 82.2041 13.981C83.0676 13.5474 84.0854 13.3269 85.2502 13.3269C86.0145 13.3269 86.8413 13.4701 87.7268 13.7495V8.09082H91.4784V28.2819H88.0281Z" fill="#1F2428"></path>
<path d="M102.047 21.4408C101.643 21.4621 101.224 21.4997 100.798 21.5474C100.371 21.5989 99.9671 21.665 99.5813 21.7458C98.7656 21.9074 98.2034 22.1831 97.8874 22.5763C97.5751 22.9731 97.4171 23.3994 97.4171 23.866C97.4171 24.3474 97.5934 24.7369 97.9499 25.0308C98.3063 25.3211 98.806 25.468 99.4564 25.468C99.9451 25.468 100.419 25.3688 100.875 25.1668C101.33 24.9646 101.724 24.7111 102.047 24.4098V21.4408ZM102.348 28.2716L102.201 27.1803C101.793 27.6286 101.279 27.9813 100.651 28.2349C100.022 28.4885 99.3351 28.617 98.5856 28.617C97.9572 28.617 97.3509 28.5103 96.7777 28.2973C96.1972 28.088 95.6864 27.7829 95.2418 27.3897C94.7972 26.9966 94.4371 26.5152 94.1652 25.9383C93.8896 25.3615 93.7537 24.7111 93.7537 23.9836C93.7537 23.2597 93.8933 22.6167 94.1799 22.0618C94.4628 21.507 94.845 21.0403 95.3337 20.6545C95.8187 20.2724 96.3772 19.96 97.0055 19.7175C97.6302 19.4752 98.2916 19.2913 98.9787 19.17C99.4637 19.0708 99.9965 18.9972 100.573 18.9458C101.15 18.8943 101.632 18.8503 102.017 18.8098V18.5967C102.017 17.7884 101.812 17.2151 101.393 16.8697C100.978 16.528 100.404 16.3553 99.6769 16.3553C99.2506 16.3553 98.8428 16.4068 98.457 16.5097C98.0711 16.6089 97.7294 16.7339 97.4244 16.8845C97.1194 17.0389 96.8512 17.1895 96.616 17.3401C96.3846 17.4908 96.1972 17.6267 96.0539 17.748L94.8119 15.1171C94.9736 14.9739 95.2198 14.8048 95.5541 14.6027C95.8885 14.4006 96.289 14.2021 96.7667 14.011C97.2407 13.8199 97.7735 13.6583 98.3688 13.526C98.964 13.3938 99.607 13.3276 100.29 13.3276C101.099 13.3276 101.837 13.4343 102.503 13.6474C103.168 13.8604 103.744 14.1912 104.229 14.6468C104.711 15.0987 105.089 15.672 105.365 16.3701C105.637 17.0646 105.773 17.906 105.773 18.8944V28.2716H102.348Z" fill="#1F2428"></path>
<path d="M117.369 11.42C117.247 11.3614 117.012 11.2731 116.66 11.1627C116.303 11.0526 115.836 10.9974 115.249 10.9974C114.727 10.9974 114.286 11.1556 113.933 11.4678C113.58 11.7801 113.404 12.2908 113.404 12.9963V13.6908H116.553V16.7185H113.433V28.282H109.678V16.7185H107.742V13.6908H109.678V12.9044C109.678 11.9565 109.799 11.1554 110.042 10.4977C110.284 9.84367 110.622 9.30718 111.056 8.89565C111.49 8.48043 112 8.17547 112.585 7.98439C113.173 7.79321 113.808 7.69775 114.495 7.69775C115.403 7.69775 116.152 7.78227 116.748 7.95506C117.343 8.12784 117.692 8.24167 117.791 8.30415L117.369 11.42Z" fill="#1F2428"></path>
<path d="M127.603 20.9116C127.603 20.3053 127.529 19.7284 127.39 19.1809C127.25 18.6334 127.037 18.1631 126.754 17.77C126.471 17.3731 126.129 17.0608 125.725 16.8293C125.321 16.5941 124.847 16.4765 124.303 16.4765C123.759 16.4765 123.282 16.5941 122.881 16.8293C122.477 17.0607 122.132 17.3731 121.849 17.77C121.569 18.1631 121.356 18.6334 121.213 19.1809C121.073 19.7284 121.004 20.3053 121.004 20.9116C121.004 21.5399 121.073 22.1241 121.213 22.6606C121.356 23.1971 121.562 23.6674 121.834 24.0716C122.106 24.4758 122.451 24.7954 122.863 25.0306C123.278 25.2621 123.759 25.3797 124.303 25.3797C124.847 25.3797 125.321 25.2621 125.725 25.0306C126.129 24.7954 126.471 24.4758 126.754 24.0716C127.037 23.6674 127.25 23.1971 127.39 22.6606C127.529 22.1241 127.603 21.5399 127.603 20.9116ZM131.296 20.9276C131.296 21.8793 131.149 22.8126 130.855 23.7312C130.565 24.6498 130.131 25.4692 129.554 26.1967C128.981 26.9243 128.253 27.5085 127.375 27.9531C126.497 28.3977 125.472 28.6182 124.303 28.6182C123.131 28.6182 122.106 28.3977 121.231 27.9531C120.353 27.5085 119.626 26.9243 119.049 26.1967C118.476 25.4692 118.042 24.6498 117.748 23.7312C117.454 22.8126 117.311 21.8793 117.311 20.9276C117.311 19.9796 117.454 19.0536 117.748 18.1424C118.042 17.2348 118.476 16.4227 119.049 15.7062C119.626 14.9897 120.353 14.4165 121.231 13.9829C122.106 13.5493 123.131 13.3289 124.303 13.3289C125.472 13.3289 126.493 13.5494 127.36 13.9829C128.228 14.4165 128.955 14.9897 129.539 15.7062C130.127 16.4227 130.565 17.2348 130.855 18.1424C131.149 19.0536 131.296 19.9796 131.296 20.9276Z" fill="#1F2428"></path>
<path d="M142.947 28.2826V19.96C142.947 18.8503 142.716 17.9905 142.253 17.3842C141.786 16.7816 141.143 16.4766 140.313 16.4766C139.729 16.4766 139.188 16.6273 138.696 16.9322C138.2 17.2335 137.77 17.5679 137.406 17.9317V28.2826H133.655V13.6914H137.076L137.256 14.8415C137.844 14.3602 138.501 13.9853 139.24 13.7245C139.975 13.4599 140.717 13.3313 141.463 13.3313C142.231 13.3313 142.936 13.4452 143.583 13.6767C144.23 13.9119 144.785 14.2793 145.248 14.7827C145.714 15.2861 146.071 15.9438 146.324 16.7485C146.574 17.5569 146.703 18.5269 146.703 19.655V28.2826H142.947Z" fill="#1F2428"></path>
<path d="M158.38 19.2325C158.34 18.7291 158.233 18.2882 158.06 17.9171C157.888 17.5423 157.674 17.241 157.421 17.0095C157.167 16.7743 156.896 16.6053 156.602 16.4914C156.304 16.3813 156.006 16.3261 155.701 16.3261C155.051 16.3261 154.434 16.5685 153.846 17.0536C153.258 17.5386 152.912 18.2625 152.81 19.2325H158.38ZM152.721 21.9259C152.802 23.1568 153.184 24.0461 153.875 24.5899C154.562 25.1337 155.455 25.4092 156.546 25.4092C157.054 25.4092 157.531 25.3615 157.976 25.2733C158.42 25.1815 158.817 25.0674 159.163 24.9242C159.508 24.7845 159.802 24.6413 160.045 24.5017C160.287 24.3585 160.467 24.2261 160.592 24.1048L161.591 27.1656C161.448 27.2648 161.22 27.4008 160.908 27.5735C160.596 27.7463 160.206 27.9042 159.743 28.0585C159.28 28.2092 158.733 28.3378 158.108 28.4517C157.483 28.5618 156.796 28.617 156.05 28.617C155.099 28.617 154.198 28.4663 153.339 28.165C152.483 27.8601 151.729 27.3897 151.086 26.7541C150.44 26.1184 149.925 25.3284 149.543 24.3804C149.157 23.4323 148.966 22.3006 148.966 20.9889C148.966 19.7579 149.142 18.6666 149.495 17.7186C149.848 16.7706 150.333 15.9732 150.947 15.3265C151.564 14.6835 152.28 14.1874 153.096 13.842C153.916 13.5003 154.786 13.3276 155.716 13.3276C156.646 13.3276 157.502 13.482 158.292 13.7832C159.078 14.0846 159.758 14.5549 160.335 15.1906C160.908 15.8263 161.364 16.6493 161.694 17.6598C162.029 18.6666 162.194 19.8682 162.194 21.2608V21.9258L152.721 21.9259Z" fill="#1F2428"></path>
</svg>